<svg xmlns="http://www.w3.org/2000/svg" viewBox="0 0 178.532 41" style="-webkit-print-color-adjust:exact" fill="none">
  <g style="fill:#000">
    <defs>
      <linearGradient id="a" x1="1.215" y1=".505" x2="-.233" y2=".546">
        <stop offset="0" stop-color="#f100ba"/>
        <stop offset="1" stop-color="#f100ba"/>
      </linearGradient>
      <pattern patternUnits="userSpaceOnUse" x="0" y="0" height="41" width="178.532" data-loading="false" id="b">
        <path style="fill:url(#a)" d="M0 0h178.532v41H0z"/>
      </pattern>
    </defs>
    <path d="M175.716 7.5h-23.8V35h10.4s0 5.5-2.7 5.5h-13.5V2l32.4.4s.4 5.1-2.8 5.1Zm-9.4 16.5c-3.1.1-11.8 0-11.8 0v-5.7h14.5s.4 5.6-2.7 5.7ZM.016 1.7l32.4-.4v38.5h-13.5c-2.7 0-2.7-5.5-2.7-5.5h10.4V6.8h-23.8c-3.2 0-2.8-5.1-2.8-5.1Zm9.5 15.9h14.5v5.7s-8.7.1-11.8 0c-3.1-.1-2.7-5.7-2.7-5.7Zm56.4 13.5h-16.3l-4.2 9.2h-6.2L58.016 0l18.1 40.3h-6.3Zm-2.3-5.4-5.6-12.9-5.9 12.9Zm35.1-5.1h15.6v1.2c0 2.867-.333 5.4-1 7.6-.667 2-1.767 3.9-3.3 5.7-3.533 3.933-8 5.9-13.4 5.9-5.333 0-9.867-1.9-13.6-5.7-3.8-3.867-5.7-8.5-5.7-13.9 0-5.467 1.933-10.133 5.8-14 3.8-3.8 8.467-5.7 14-5.7 2.933 0 5.7.6 8.3 1.8 2.467 1.2 4.867 3.167 7.2 5.9l-4 3.9c-3.133-4.133-6.933-6.2-11.4-6.2-4 0-7.367 1.367-10.1 4.1-2.733 2.733-4.1 6.133-4.1 10.2 0 4.2 1.533 7.667 4.6 10.4 2.8 2.6 5.867 3.9 9.2 3.9 2.8 0 5.333-.967 7.6-2.9 2.2-1.933 3.433-4.233 3.7-6.9h-9.4Zm28.6-18.1V35h11.1v5.4h-16.9V2.5Z" fill="url(#b)" class="fills"/>
  </g>
</svg>
